<svg width="430" height="430" viewBox="0 0 430 430" fill="none" xmlns="http://www.w3.org/2000/svg">
<path fill-rule="evenodd" clip-rule="evenodd" d="M217.525 83.0576C215.923 82.3141 214.075 82.3141 212.474 83.0576L31.3735 167.108C29.2549 168.091 27.8994 170.214 27.8994 172.55C27.8994 174.886 29.2549 177.009 31.3735 177.992L66.1156 194.116L31.2627 211.16C29.1842 212.176 27.8753 214.297 27.8987 216.611C27.9222 218.924 29.2739 221.018 31.3726 221.992L66.8895 238.476L31.2627 255.897C29.1842 256.914 27.8753 259.035 27.8987 261.348C27.9222 263.662 29.2739 265.756 31.3726 266.73L212.473 350.78C214.074 351.523 215.922 351.523 217.524 350.78L398.624 266.73C400.74 265.748 402.095 263.629 402.098 261.296C402.102 258.963 400.753 256.84 398.64 255.852L362.288 238.856L398.624 221.992C400.74 221.01 402.095 218.891 402.098 216.558C402.102 214.225 400.753 212.102 398.64 211.114L363.081 194.489L398.625 177.992C400.744 177.009 402.099 174.886 402.099 172.55C402.099 170.214 400.744 168.091 398.625 167.108L217.525 83.0576ZM348.862 201.088L217.525 262.042C215.923 262.786 214.075 262.786 212.474 262.042L80.1307 200.621L47.8461 216.408L214.998 293.985L381.889 216.53L348.862 201.088ZM84.7673 189.543L214.999 249.985L381.847 172.55L214.999 95.1147L48.1519 172.55L80.9664 187.779C82.3899 187.892 83.7474 188.511 84.7673 189.543ZM217.524 306.042L348.069 245.455L381.889 261.267L214.998 338.723L47.8461 261.146L80.9046 244.98L212.473 306.042C214.074 306.785 215.922 306.785 217.524 306.042Z" fill="url(#paint0_linear_2175_1700)"/>
<defs>
<linearGradient id="paint0_linear_2175_1700" x1="150.309" y1="142.202" x2="217.954" y2="317.931" gradientUnits="userSpaceOnUse">
<stop stop-color="#CA5EEE"/>
<stop offset="1" stop-color="#4BE1EC"/>
</linearGradient>
</defs>
</svg>
