<svg xmlns="http://www.w3.org/2000/svg" version="1.1" xmlns:xlink="http://www.w3.org/1999/xlink" xmlns:svgjs="http://svgjs.dev/svgjs" width="1500" height="937" viewBox="0 0 1500 937"><g transform="matrix(1,0,0,1,0,0)"><svg viewBox="0 0 576 360" data-background-color="#0a182e" preserveAspectRatio="xMidYMid meet" height="937" width="1500" xmlns="http://www.w3.org/2000/svg" xmlns:xlink="http://www.w3.org/1999/xlink"><g id="tight-bounds" transform="matrix(1,0,0,1,0,0)"><svg viewBox="0 0 576 360" height="360" width="576"><g><svg></svg></g><g><svg viewBox="0 0 576 360" height="360" width="576"><g><path d="M132.115 90l155.885-90 155.885 90v180l-155.885 90-155.885-90zM146.725 261.565l141.275 81.566 141.275-81.566v-163.13l-141.275-81.566-141.275 81.566z" fill="#64ffda" fill-rule="nonzero" stroke="none" stroke-width="1" stroke-linecap="butt" stroke-linejoin="miter" stroke-miterlimit="10" stroke-dasharray="" stroke-dashoffset="0" font-family="none" font-weight="none" font-size="none" text-anchor="none" style="mix-blend-mode: normal" data-fill-palette-color="tertiary"></path></g><g transform="matrix(1,0,0,1,222.76717557251908,99)"><svg viewBox="0 0 130.46564885496184 162" height="162" width="130.46564885496184"><g><svg viewBox="0 0 130.46564885496184 162" height="162" width="130.46564885496184"><g><svg viewBox="0 0 130.46564885496184 162" height="162" width="130.46564885496184"><g><svg viewBox="0 0 130.46564885496184 162" height="162" width="130.46564885496184"><g id="textblocktransform"><svg viewBox="0 0 130.46564885496184 162" height="162" width="130.46564885496184" id="textblock"><g><svg viewBox="0 0 130.46564885496184 162" height="162" width="130.46564885496184"><g transform="matrix(1,0,0,1,0,0)"><svg width="130.46564885496184" viewBox="4.4 -25.5 21.1 26.2" height="162" data-palette-color="#64ffda"><path d="M9.5-18.4L9.5-18.4Q9.5-16.6 11.03-15.65 12.55-14.7 16.6-14.4L16.6-14.4Q20.95-14.05 23.23-12.33 25.5-10.6 25.5-7.3L25.5-7.3 25.5-7Q25.5-5.2 24.78-3.78 24.05-2.35 22.78-1.35 21.5-0.35 19.68 0.18 17.85 0.7 15.7 0.7L15.7 0.7Q12.8 0.7 10.73-0.08 8.65-0.85 7.28-2.13 5.9-3.4 5.2-5.03 4.5-6.65 4.4-8.3L4.4-8.3 8.1-9.2Q8.35-6.35 10.3-4.63 12.25-2.9 15.5-2.9L15.5-2.9Q18.25-2.9 19.93-3.98 21.6-5.05 21.6-7L21.6-7Q21.6-9.1 19.95-10 18.3-10.9 14.6-11.15L14.6-11.15Q10.3-11.45 8-13.15 5.7-14.85 5.7-18.1L5.7-18.1 5.7-18.4Q5.7-20.15 6.45-21.48 7.2-22.8 8.47-23.7 9.75-24.6 11.35-25.05 12.95-25.5 14.7-25.5L14.7-25.5Q17.15-25.5 19-24.83 20.85-24.15 22.1-23.08 23.35-22 24.03-20.6 24.7-19.2 24.9-17.8L24.9-17.8 21.2-16.9Q20.95-19.3 19.28-20.65 17.6-22 14.9-22L14.9-22Q13.85-22 12.88-21.78 11.9-21.55 11.15-21.1 10.4-20.65 9.95-19.98 9.5-19.3 9.5-18.4Z" opacity="1" transform="matrix(1,0,0,1,0,0)" fill="#64ffda" class="wordmark-text-0" data-fill-palette-color="primary" id="text-0"></path></svg></g></svg></g></svg></g></svg></g></svg></g></svg></g></svg></g></svg></g><defs></defs></svg><rect width="576" height="360" fill="none" stroke="none" visibility="hidden"></rect></g></svg></g></svg>